<svg width="3000" height="1700" viewBox="0 0 3000 1700" fill="none" xmlns="http://www.w3.org/2000/svg">
<rect width="3000" height="1700" rx="500" fill="#111111" fill-opacity="0.854902"/>
<path d="M1850 559L1325 862.109V255.891L1850 559Z" fill="#ED1A1A"/>
<path d="M549.4 1243.2V1206.8C549.4 1200.93 546.067 1198 539.4 1198H501C481.267 1198 467.267 1193.73 459 1185.2C451 1176.4 447 1163.87 447 1147.6V1094.8C447 1061.73 466.467 1045.2 505.4 1045.2H560.2C599.133 1045.2 618.6 1061.73 618.6 1094.8V1125.6H548.6V1104C548.6 1098.13 545.267 1095.2 538.6 1095.2H527C520.333 1095.2 517 1098.13 517 1104V1142C517 1147.87 520.333 1150.8 527 1150.8H564.6C584.333 1150.8 598.333 1154.93 606.6 1163.2C615.133 1171.47 619.4 1183.6 619.4 1199.6V1252.4C619.4 1285.47 599.933 1302 561 1302H506.6C467.4 1302 447.8 1285.47 447.8 1252.4V1221.6H517.8V1243.2C517.8 1249.07 521.133 1252 527.8 1252H539.4C546.067 1252 549.4 1249.07 549.4 1243.2ZM874.284 1045.2V1095.2H824.684V1302H754.684V1095.2H705.484V1045.2H874.284ZM1034.14 1210.8V1302H964.141V1045.2H1082.94C1122.14 1045.2 1141.74 1061.73 1141.74 1094.8V1161.2C1141.74 1186.53 1130.27 1202.13 1107.34 1208L1154.54 1302H1079.34L1038.54 1210.8H1034.14ZM1061.74 1095.2H1034.14V1163.2H1061.74C1068.41 1163.2 1071.74 1160.27 1071.74 1154.4V1104C1071.74 1098.13 1068.41 1095.2 1061.74 1095.2ZM1311.61 1252H1399.21V1302H1241.61V1045.2H1395.61V1095.2H1311.61V1147.6H1384.01V1197.6H1311.61V1252ZM1624.1 1302L1616.1 1263.6H1554.5L1546.1 1302H1477.3L1543.3 1045.2H1628.5L1694.5 1302H1624.1ZM1565.3 1214H1605.3L1585.7 1121.6L1565.3 1214ZM1844.88 1302H1782.48V1045.2H1858.88L1900.48 1182.4L1942.08 1045.2H2018.48V1302H1956.48V1138.8L1924.48 1246.4H1876.48L1844.88 1139.6V1302ZM2192.45 1252H2280.05V1302H2122.45V1045.2H2276.45V1095.2H2192.45V1147.6H2264.85V1197.6H2192.45V1252ZM2444.14 1210.8V1302H2374.14V1045.2H2492.94C2532.14 1045.2 2551.74 1061.73 2551.74 1094.8V1161.2C2551.74 1186.53 2540.27 1202.13 2517.34 1208L2564.54 1302H2489.34L2448.54 1210.8H2444.14ZM2471.74 1095.2H2444.14V1163.2H2471.74C2478.41 1163.2 2481.74 1160.27 2481.74 1154.4V1104C2481.74 1098.13 2478.41 1095.2 2471.74 1095.2Z" fill="white"/>
</svg>
